<?xml version="1.0" encoding="UTF-8"?>
<svg version="1.1" xmlns="http://www.w3.org/2000/svg" width="297" height="430">
<path d="M0 0 C0.99 0.33 1.98 0.66 3 1 C3.91892116 4.67568464 3.95904856 6.16380575 3 10 C5.97 9.34 8.94 8.68 12 8 C8.62466016 11.37533984 7.2891966 11.53341278 2.83984375 12.1796875 C0.75448243 12.85872353 0.75448243 12.85872353 0.03515625 15.27734375 C-0.30644531 16.17582031 -0.64804688 17.07429688 -1 18 C-3.09375 20.38671875 -3.09375 20.38671875 -5.5 22.6875 C-6.2940625 23.45449219 -7.088125 24.22148437 -7.90625 25.01171875 C-8.5971875 25.66785156 -9.288125 26.32398437 -10 27 C-10.66 27.66 -11.32 28.32 -12 29 C-11.48203857 28.69296143 -10.96407715 28.38592285 -10.43041992 28.06958008 C8.60156993 16.82273223 8.60156993 16.82273223 18 13 C18 13.66 18 14.32 18 15 C17.47567383 15.28721924 16.95134766 15.57443848 16.41113281 15.87036133 C14.02233542 17.18124163 11.63615692 18.49681992 9.25 19.8125 C8.425 20.26431641 7.6 20.71613281 6.75 21.18164062 C5.95078125 21.62314453 5.1515625 22.06464844 4.328125 22.51953125 C3.5949707 22.92276611 2.86181641 23.32600098 2.10644531 23.74145508 C-0.05044265 25.03013814 -2.01784556 26.45854195 -4 28 C-2.99839844 27.45730469 -1.99679688 26.91460938 -0.96484375 26.35546875 C0.37752056 25.6326572 1.71997321 24.91000971 3.0625 24.1875 C4.04766602 23.65286133 4.04766602 23.65286133 5.05273438 23.10742188 C9.28796344 20.83333336 13.4846777 18.6635398 18 17 C18.99 17.33 19.98 17.66 21 18 C20.39639648 18.31638428 19.79279297 18.63276855 19.17089844 18.95874023 C2.32601851 27.80895662 2.32601851 27.80895662 -13 39 C-13.91523438 39.75410156 -14.83046875 40.50820313 -15.7734375 41.28515625 C-23.26031871 47.73394048 -29.12566989 55.1145356 -35 63 C-34.67 63.33 -34.34 63.66 -34 64 C-33.21689453 63.18208984 -33.21689453 63.18208984 -32.41796875 62.34765625 C-21.20467147 50.85942699 -8.23542652 40.2030544 6.29296875 33.16796875 C8.39147099 31.73215143 9.0497652 30.32442051 10 28 C10.66 28.66 11.32 29.32 12 30 C12.90492188 29.54947266 12.90492188 29.54947266 13.828125 29.08984375 C14.62734375 28.70957031 15.4265625 28.32929688 16.25 27.9375 C17.03890625 27.55464844 17.8278125 27.17179687 18.640625 26.77734375 C21.25993522 25.91435909 22.44855176 26.06954067 25 27 C24.05898438 27.47308594 23.11796875 27.94617188 22.1484375 28.43359375 C15.21260975 32.06372475 10.35035989 34.89053623 6.3828125 41.8515625 C1.01923115 50.18481037 -10.81229434 55.63861698 -19 61 C-5.94287567 55.89497403 2.60824715 51.1568236 10 39 C10.66 38.01 11.32 37.02 12 36 C12.66 36 13.32 36 14 36 C12.61219205 39.89006773 10.7847773 42.96558708 8.375 46.3125 C7.42753906 47.63701172 7.42753906 47.63701172 6.4609375 48.98828125 C5.97882813 49.65214844 5.49671875 50.31601562 5 51 C9.95258714 47.22660027 13.43679155 43.09210286 17 38 C17.33 38.66 17.66 39.32 18 40 C14.535 44.95 14.535 44.95 11 50 C14.37161357 48.87612881 14.72035171 48.29600597 16.5625 45.4375 C17.81640625 43.49609375 17.81640625 43.49609375 19 42 C19.66 42 20.32 42 21 42 C19.80100302 45.0831351 18.52299523 48.06279492 17 51 C20.79303725 49.99806563 23.71536341 49.18975773 27 47 C26.67 47.99 26.34 48.98 26 50 C28.97 50.99 31.94 51.98 35 53 C35 53.66 35 54.32 35 55 C33.3603125 54.6596875 33.3603125 54.6596875 31.6875 54.3125 C28.02093919 54.24009036 26.92327099 55.06305254 24.01953125 57.44921875 C21.22236488 60.18873944 18.59107602 63.06598745 16 66 C21.79145929 63.6103202 24.97495712 61.54591194 28 56 C28.33 56.66 28.66 57.32 29 58 C28.0625 60.125 28.0625 60.125 27 62 C29.31 62.99 31.62 63.98 34 65 C34 65.99 34 66.98 34 68 C33.34 67.67 32.68 67.34 32 67 C27.9329315 66.44681594 27.9329315 66.44681594 24 67 C21.76507866 69.02870665 20.40298727 71.34738845 19 74 C18.566875 74.804375 18.13375 75.60875 17.6875 76.4375 C17.3471875 77.2109375 17.3471875 77.2109375 17 78 C17.7425 78.268125 18.485 78.53625 19.25 78.8125 C21.86636554 79.94229421 23.80187111 81.20893202 26 83 C25.67 83.66 25.34 84.32 25 85 C24.40832031 84.68804687 23.81664062 84.37609375 23.20703125 84.0546875 C22.41683594 83.66539063 21.62664062 83.27609375 20.8125 82.875 C20.03519531 82.48054688 19.25789063 82.08609375 18.45703125 81.6796875 C15.19208955 80.77650808 13.93235024 81.36679227 11 83 C8.7239295 84.91623447 8.7239295 84.91623447 6.6875 87.125 C5.99011719 87.84945312 5.29273438 88.57390625 4.57421875 89.3203125 C4.05472656 89.87460938 3.53523437 90.42890625 3 91 C3.72058594 90.85046875 4.44117188 90.7009375 5.18359375 90.546875 C17.68715065 88.11899987 27.86643267 89.7652023 39 96 C40.155 96.5775 41.31 97.155 42.5 97.75 C43.325 98.1625 44.15 98.575 45 99 C43 100 43 100 40 100 C41.32 101.98 42.64 103.96 44 106 C43.67 106.66 43.34 107.32 43 108 C42.5153125 107.36191406 42.030625 106.72382812 41.53125 106.06640625 C37.29459065 100.78555795 37.29459065 100.78555795 31.375 97.8125 C29.30463871 97.76518321 29.30463871 97.76518321 27 98 C25.48792969 98.10054687 25.48792969 98.10054687 23.9453125 98.203125 C9.78321053 99.68035106 -2.55032848 105.65951832 -15.18725586 111.81152344 C-20.52914138 114.38775192 -25.85158188 116.4291338 -31.53125 118.16015625 C-35.01272361 119.34451832 -37.90482108 121.03034069 -41 123 C-34.12085918 121.51473096 -27.60517213 119.55761146 -21.0625 117 C-6.30718832 111.32474588 8.45600005 108.52122035 24 113 C24.66 113.33 25.32 113.66 26 114 C26 114.66 26 115.32 26 116 C25.16855469 115.84273438 24.33710938 115.68546875 23.48046875 115.5234375 C9.95124974 113.48874014 -7.28617181 114.19078121 -19 122 C-17.35 122.99 -15.7 123.98 -14 125 C-17.25150919 126.01039888 -19.87242949 125.92808114 -23.25 125.6875 C-29.37220228 125.61320143 -34.20730069 127.34759362 -39.76098633 129.64404297 C-46.0442388 132.18441722 -52.29483483 133.39405135 -58.96484375 134.45703125 C-61.86864371 134.67813143 -61.86864371 134.67813143 -63 136 C-41.04894559 141.24577118 -25.77296716 136.29478422 -6.71875 125.06640625 C-2.25271867 122.27513667 1.91951211 119.33396879 6 116 C6.66 116.33 7.32 116.66 8 117 C-4.33240618 129.25127193 -20.78262058 137.27621903 -37 143 C-32.04710759 144.33684264 -27.43015881 145.18201602 -22.703125 142.8828125 C-20.74396261 141.65312547 -18.85481816 140.38124757 -17 139 C-18.36983503 142.16115776 -18.9890638 142.9927092 -22 145 C-7.53994003 144.035996 4.88271372 138.20051278 16 129 C16 132 16 132 14.63671875 133.61328125 C3.11523559 143.65705916 -9.73377867 149.06428034 -24.98681641 149.56762695 C-30.78149872 149.81978107 -35.74874045 151.20572433 -41.203125 153.078125 C-44.49941234 154.16461077 -47.55554404 154.67958549 -51 155 C-51 157.58926331 -50.17346382 158.20051661 -48.5 160.125 C-47.675 161.07375 -46.85 162.0225 -46 163 C-44.02 162.34 -42.04 161.68 -40 161 C-41 164 -41 164 -43 165 C-43 166.65 -43 168.3 -43 170 C-43.763125 169.649375 -44.52625 169.29875 -45.3125 168.9375 C-48.04759379 167.67639116 -48.04759379 167.67639116 -51 169 C-50.566875 169.60585937 -50.13375 170.21171875 -49.6875 170.8359375 C-46.15856174 176.14568257 -44.0681222 180.27102812 -44.46484375 186.73046875 C-45.36385389 190.54305919 -47.14927489 192.35289812 -50 195 C-53.21107887 196.60553944 -56.51670728 196.47469056 -60 196 C-63.62103911 193.95332572 -64.7516513 192.61495869 -66.3125 188.75 C-66.539375 187.8425 -66.76625 186.935 -67 186 C-66.34 186 -65.68 186 -65 186 C-64.46375 186.825 -63.9275 187.65 -63.375 188.5 C-60.79847004 191.2121368 -60.4479799 191.39694004 -56.9375 191.5 C-53.20164452 191.28513381 -53.20164452 191.28513381 -51.0625 189.875 C-49.5210679 187.15482571 -49.12285805 185.13288023 -49 182 C-50.41685156 178.38702851 -51.92367284 175.41396007 -55 173 C-57.10257859 173.37303814 -59.20416485 173.77395276 -61.26953125 174.31640625 C-77.14174506 178.29013646 -90.4453668 176.64201424 -106 172.375 C-121.71993912 168.42399926 -137.54113569 169.51237384 -152 177 C-150.9996875 176.835 -149.999375 176.67 -148.96875 176.5 C-143.88676614 175.77400231 -138.84100519 175.97783462 -133.71875 176.0625 C-130.05276629 176.00088683 -126.62034947 175.55119508 -123 175 C-107.56279263 173.91375537 -92.45570227 178.54681376 -80.4375 188.4375 C-75.68353572 192.99804817 -72.25760567 197.74758208 -71.1875 204.3125 C-70.42124045 207.93733672 -70.42124045 207.93733672 -68.38671875 209.16796875 C-63.59916449 211.14806401 -59.11639198 211.57765716 -54 211 C-50.04775131 208.87186609 -47.04517093 206.27941485 -44 203 C-44.09723619 207.08391981 -44.99552431 209.50332575 -47.8125 212.375 C-52.0207816 215.69641233 -55.97489134 215.60477333 -61.17578125 215.34375 C-64.32031836 214.96101243 -67.10040473 214.28870901 -70 213 C-71.32 215.31 -72.64 217.62 -74 220 C-74.33 220 -74.66 220 -75 220 C-74.90234375 218.01432292 -74.8046875 216.02864583 -74.70703125 214.04296875 C-75.09420785 211.34305726 -75.88675105 210.69968841 -78 209 C-79.7264471 207.77851047 -81.48034782 206.5955101 -83.25 205.4375 C-86.72746092 203.16103942 -90.19021324 200.87997636 -93.59765625 198.5 C-111.8496653 185.60978166 -111.8496653 185.60978166 -132.99121094 182.55029297 C-136.30361014 183.29183883 -139.46367559 184.34709517 -142.625 185.5625 C-143.30578613 185.81918457 -143.98657227 186.07586914 -144.68798828 186.34033203 C-150.92268019 188.78714907 -156.59489146 191.98610909 -162.3046875 195.4609375 C-165 197 -165 197 -167 197 C-166.67 197.66 -166.34 198.32 -166 199 C-165.35933594 198.66226563 -164.71867187 198.32453125 -164.05859375 197.9765625 C-163.19363281 197.53054687 -162.32867187 197.08453125 -161.4375 196.625 C-160.16712891 195.96371094 -160.16712891 195.96371094 -158.87109375 195.2890625 C-152.76088189 192.54570207 -147.28504053 191.67662606 -140.6875 191.75 C-139.97271484 191.74226562 -139.25792969 191.73453125 -138.52148438 191.7265625 C-133.25357734 191.74642266 -133.25357734 191.74642266 -131 194 C-133.41204835 195.20602417 -135.6499981 195.32860729 -138.30615234 195.59448242 C-152.61340756 197.05798516 -165.47395766 201.56874919 -175 213 C-176.79057898 215.93953382 -178.43166865 218.93674856 -180 222 C-179.40574219 221.55269531 -178.81148438 221.10539063 -178.19921875 220.64453125 C-165.0235434 211.03427971 -152.37011599 206.60492 -136 208 C-121.43365505 210.79285833 -109.22835747 219.119377 -100.48828125 231.06640625 C-97.59668711 236.0886487 -97.03453062 241.30775344 -98 247 C-99.5 249.625 -99.5 249.625 -102 251 C-107.01584961 251.79616661 -107.01584961 251.79616661 -110 251 C-112.42412705 249.18474993 -113.37856479 247.66752244 -115 245 C-114.67 244.01 -114.34 243.02 -114 242 C-113.29875 242.845625 -112.5975 243.69125 -111.875 244.5625 C-109.20542015 247.39309751 -109.20542015 247.39309751 -105.6875 246.8125 C-104.3571875 246.4103125 -104.3571875 246.4103125 -103 246 C-101.56362706 241.80137142 -102.05981353 239.11572388 -103.8125 235.1875 C-109.94424818 224.02972873 -121.16306883 217.43288822 -132.9140625 213.33203125 C-144.54311316 211.48096513 -157.02466359 212.34977573 -167 219 C-166.49855469 218.7834375 -165.99710937 218.566875 -165.48046875 218.34375 C-152.72516593 213.65014624 -137.34074105 214.56419739 -125 220 C-122.78423262 221.20563813 -120.97510578 222.41991538 -119 224 C-121 225 -121 225 -124.1328125 224.00390625 C-124.76606445 223.77445313 -125.39931641 223.545 -126.05175781 223.30859375 C-140.375086 218.15408469 -154.70355202 218.28558302 -168.74609375 224.65234375 C-176.00804524 227.91706996 -176.00804524 227.91706996 -182 233 C-181.12601563 232.49339844 -181.12601563 232.49339844 -180.234375 231.9765625 C-171.6651083 227.31466583 -162.64829764 224.51463964 -152.98046875 227.2265625 C-149.88405066 228.43581453 -147.5751471 229.88705879 -145 232 C-145 232.66 -145 233.32 -145 234 C-146.27875 233.690625 -147.5575 233.38125 -148.875 233.0625 C-160.23749379 230.6086281 -168.71001164 230.40204802 -178.8125 236.875 C-182.24018673 239.3059835 -185.17177986 241.89808113 -188 245 C-187.21496094 244.59007812 -186.42992187 244.18015625 -185.62109375 243.7578125 C-175.72601944 238.68279279 -165.89766848 234.42435912 -154.625 237.6875 C-149.8554755 239.85546568 -147.05649774 242.79731561 -144 247 C-148.01094227 247 -149.74328725 245.23899001 -153 243 C-161.09967025 240.30010992 -170.29432428 241.6468097 -178 245 C-185.17116 248.67303317 -192.03875297 252.52649137 -198 258 C-198 258.66 -198 259.32 -198 260 C-197.22398437 259.48050781 -196.44796875 258.96101563 -195.6484375 258.42578125 C-181.56481056 249.33360682 -167.53867197 244.11153482 -150.72265625 247.69921875 C-145.09191839 249.52978785 -139.61445924 252.15411616 -136 257 C-135.0625 260.875 -135.0625 260.875 -135 264 C-135.86625 262.88625 -135.86625 262.88625 -136.75 261.75 C-139.64862915 258.14797714 -139.64862915 258.14797714 -143 255 C-145.09291157 255.08571661 -145.09291157 255.08571661 -147 256 C-147.99 256.33 -148.98 256.66 -150 257 C-150 257.66 -150 258.32 -150 259 C-148.7315625 259.3403125 -148.7315625 259.3403125 -147.4375 259.6875 C-144 261 -144 261 -140.85546875 263.38671875 C-136.80382522 266.34245659 -132.65505938 267.73226628 -127.875 269.125 C-126.62203125 269.50120483 -126.62203125 269.50120483 -125.34375 269.88500977 C-122.90067712 270.60830028 -120.45202467 271.30775472 -118 272 C-116.14761719 272.53560547 -116.14761719 272.53560547 -114.2578125 273.08203125 C-104.79666166 275.56643417 -96.7036429 275.90974728 -88 271 C-87.34 271.33 -86.68 271.66 -86 272 C-90.70862516 276.41433609 -95.27278051 277.89865566 -101.5859375 278.0703125 C-110.77346317 277.64240035 -119.30718455 274.79117652 -128 272 C-128.33 272.33 -128.66 272.66 -129 273 C-128.40251953 273.74443359 -128.40251953 273.74443359 -127.79296875 274.50390625 C-122.7794037 280.93249209 -119.39764414 286.55873229 -119.7109375 294.91796875 C-120.24514671 298.7657189 -121.75965138 301.05904587 -124.8125 303.375 C-127.90516905 304.25861973 -129.93245203 303.91373769 -133 303 C-135.43044773 300.73158211 -135.96070783 299.57628517 -136.1875 296.25 C-136.125625 295.5075 -136.06375 294.765 -136 294 C-135.34 293.67 -134.68 293.34 -134 293 C-133.01 295.31 -132.02 297.62 -131 300 C-127.06924356 299.42547254 -127.06924356 299.42547254 -124 297 C-122.84770064 290.54176406 -124.38356242 285.32842064 -128 280 C-132.44143499 274.00743479 -135.47831004 270.55703773 -143 269 C-165.89828604 267.01668389 -186.24405932 275.41913617 -203.51171875 289.8828125 C-208.43214435 294.18302855 -212.33096369 297.91459721 -215 304 C-214.59652344 303.55011719 -214.19304687 303.10023438 -213.77734375 302.63671875 C-201.20009641 289.31177943 -183.79900498 277.13272702 -165.0703125 275.69921875 C-157.4206555 275.676497 -150.07808237 275.68879408 -143 279 C-142.34 279.66 -141.68 280.32 -141 281 C-147.54848601 280.10118819 -147.54848601 280.10118819 -150.30078125 279.484375 C-167.34134918 276.42644385 -182.62310737 282.18591641 -196.58203125 291.7734375 C-204.02343256 297.47169957 -210.47921238 304.29524031 -217 311 C-214.40929138 308.96110296 -211.87943876 306.89291539 -209.4140625 304.703125 C-203.98156912 299.92496556 -198.58470446 295.90694642 -192.1875 292.5 C-191.57793457 292.17418945 -190.96836914 291.84837891 -190.34033203 291.51269531 C-183.68073001 288.10781321 -177.51447273 286.63034201 -170.0625 286.6875 C-169.36318359 286.68878906 -168.66386719 286.69007813 -167.94335938 286.69140625 C-162.64425616 286.79017798 -158.70921934 287.64539033 -154 290 C-154 290.66 -154 291.32 -154 292 C-155.03125 291.67 -156.0625 291.34 -157.125 291 C-170.1279249 287.83526695 -183.03826653 290.18379168 -194.4375 297 C-202.99681037 302.81529616 -211.78657943 309.66455128 -218 318 C-217.23816406 317.45730469 -216.47632813 316.91460937 -215.69140625 316.35546875 C-206.28393119 309.83718079 -197.84059629 305.84042462 -186.26171875 305.90234375 C-185.19501953 305.90556641 -184.12832031 305.90878906 -183.02929688 305.91210938 C-181.92650391 305.92048828 -180.82371094 305.92886719 -179.6875 305.9375 C-178.56537109 305.94201172 -177.44324219 305.94652344 -176.28710938 305.95117188 C-173.5246849 305.96292687 -170.76237002 305.97935923 -168 306 C-169.25048828 307.48828125 -169.25048828 307.48828125 -171 309 C-174.02004683 309.14184173 -176.86681266 309.1310827 -179.875 309 C-194.29439302 308.72636915 -205.52365277 311.30401489 -216.4609375 321.234375 C-218.36092592 323.11436354 -220.20512896 325.01998467 -222 327 C-221.01 326.1646875 -221.01 326.1646875 -220 325.3125 C-210.90284815 318.30011212 -202.65269547 314.87917712 -191 315 C-186.62291136 315.62738271 -182.34094942 316.5596048 -178.03125 317.54296875 C-159.89430452 321.71360978 -159.89430452 321.71360978 -142 318 C-144.625 321.875 -144.625 321.875 -148 323 C-160.04233832 323.91328676 -171.07689594 322.54195022 -182.81323242 319.77880859 C-192.8729781 317.41962377 -201.02337695 317.39618147 -210.359375 322.21875 C-216.23172638 325.86365775 -220.78409003 330.54344077 -225 336 C-225 336.33 -225 336.66 -225 337 C-224.56171875 336.49210937 -224.1234375 335.98421875 -223.671875 335.4609375 C-217.85633176 329.14894545 -211.05785382 324.11908445 -202.44140625 322.52734375 C-197.65840117 322.34183091 -194.00061089 323.23767344 -190 326 C-187.40151979 329.01758992 -187 330.49588616 -187 334.5 C-188.20452613 338.71584145 -189.47407996 340.4143253 -193 343 C-196.3125 343.3125 -196.3125 343.3125 -199 343 C-199.99 341.02 -199.99 341.02 -201 339 C-199.3603125 339.3403125 -199.3603125 339.3403125 -197.6875 339.6875 C-194.16575705 340.34810791 -194.16575705 340.34810791 -192.125 338.875 C-190.70529571 336.50882618 -190.2017323 334.75700808 -190 332 C-190.82736933 329.10420733 -191.56521976 328.24844585 -194.1875 326.75 C-200.64168021 325.02888528 -206.21713038 325.84472849 -212 329 C-225.49515669 338.16515989 -231.18156068 352.260695 -234.5625 367.5 C-234.92788928 369.04937327 -235.29528621 370.59827427 -235.66455078 372.14672852 C-237.65820145 380.60874353 -239.46203644 389.11118781 -241.23828125 397.62109375 C-241.51004936 398.9220549 -241.51004936 398.9220549 -241.78730774 400.2492981 C-242.66207762 404.45403075 -243.52053973 408.66105822 -244.34985352 412.875 C-244.50596603 413.65061783 -244.66207855 414.42623566 -244.82292175 415.22535706 C-245.11321786 416.66840155 -245.39619268 418.11294787 -245.67012024 419.55918884 C-246.48160471 423.55017825 -247.54818842 426.72079079 -250 430 C-250.66 430 -251.32 430 -252 430 C-252.18220448 423.88118639 -251.53126765 418.31118321 -250.3828125 412.30859375 C-250.21007309 411.38156647 -250.03733368 410.45453918 -249.85935974 409.49942017 C-249.29109636 406.47681205 -248.70940244 403.45702672 -248.125 400.4375 C-247.92736053 399.4048703 -247.72972107 398.3722406 -247.52609253 397.30831909 C-243.79571302 377.9071645 -239.18337449 358.80267042 -234.00219727 339.74243164 C-231.32242755 329.7355644 -229.20967991 320.16350281 -233.875 310.3125 C-235.7787146 306.85804333 -235.7787146 306.85804333 -239 305 C-241.58333333 305.08333333 -241.58333333 305.08333333 -244 306 C-246.30745935 308.75310083 -246.30745935 308.75310083 -245.6875 311.5 C-245.17901328 313.34904262 -244.60642538 315.18072387 -244 317 C-245.9375 316.4375 -245.9375 316.4375 -248 315 C-249.11873951 311.04712038 -249.4095001 308.89700021 -247.6875 305.125 C-245.55663345 302.44168657 -244.63665564 302.08681668 -241.25 301.625 C-237.83149851 302.01944248 -235.94801793 302.8411364 -233.390625 305.15625 C-230.54762041 308.92562687 -229.33333172 313.52157404 -228 318 C-225.96414929 310.96706117 -228.52706163 304.79350381 -231.8125 298.5625 C-235.43418808 294.3199511 -239.5697068 292.79857253 -245 292 C-245 291.67 -245 291.34 -245 291 C-238.93033732 290.58140257 -235.79767662 290.85655201 -231 295 C-227.66344801 299.17068999 -226.22333171 302.90278454 -225 308 C-224.27760622 301.35397726 -226.26197316 296.49816569 -230 291 C-234.78865837 286.02395934 -240.41728315 283.73710584 -247 282 C-247 281.34 -247 280.68 -247 280 C-238.98796024 281.24260802 -232.52661854 283.82378853 -227.125 290.0625 C-224.14802595 294.17772883 -223 295.86011403 -223 301 C-222.34 301 -221.68 301 -221 301 C-224.65221677 286.14791294 -224.65221677 286.14791294 -235.203125 275.7109375 C-239.63725663 273.61452833 -244.25617521 272.21118931 -249 271 C-249 270.67 -249 270.34 -249 270 C-240.04839283 270.36686915 -233.59254316 271.99103278 -227.25 278.5625 C-223.44385135 283.16994311 -221.67901119 288.32681934 -220 294 C-220.46518262 275.20662204 -223.35524815 255.77393687 -236 241 C-239.20081965 242.51617773 -240.74085107 243.49348164 -242.375 246.6875 C-243.67671775 253.58660407 -241.94201602 258.86014047 -239 265 C-240.8125 264.9375 -240.8125 264.9375 -243 264 C-245.75927572 258.89023015 -247.73432058 253.57450264 -246.52734375 247.69921875 C-245.17720237 243.19136965 -243.78857962 240.00473556 -240 237 C-243.96 234.525 -243.96 234.525 -248 232 C-247.01 231.67 -246.02 231.34 -245 231 C-243.16015625 231.99609375 -243.16015625 231.99609375 -241.0625 233.4375 C-236.1842142 236.34047991 -232.27783363 236.39898651 -226.69921875 236.078125 C-224.20525844 236.00594091 -222.36355432 236.25893309 -220 237 C-223.56430755 233.85014682 -226.40693504 231.4859916 -231 230 C-231 229.67 -231 229.34 -231 229 C-226.92061916 228.40301744 -225.17833533 228.8910173 -221.625 231.0625 C-213.90931888 238.28094834 -209.42601532 249.93256496 -207 260 C-206.65802981 256.87588408 -206.32807747 253.75060292 -206 250.625 C-205.85691406 249.31982422 -205.85691406 249.31982422 -205.7109375 247.98828125 C-204.11344027 232.58384369 -203.88722306 214.92699167 -213.75 202.0625 C-217.62494959 197.95447073 -221.74929274 196.17137172 -227.37109375 195.875 C-231.32658366 196.08284183 -233.43448307 196.54482784 -236.5625 199.0625 C-238.39180194 202.80063876 -238.65812097 205.95612413 -238 210 C-236.47595763 214.03871228 -234.9941553 217.11387111 -231 219 C-226.79374114 218.77861795 -224.52432557 218.34955038 -221 216 C-221.8940192 219.08842997 -222.41771208 220.63399045 -225.1875 222.375 C-228.97478469 223.21661882 -231.25824991 223.11596055 -235 222 C-239.21210481 218.49952934 -241.87836579 214.38384419 -243 209 C-243.46773911 203.76132193 -242.93558614 200.40337921 -240 196 C-235.40245278 191.94977983 -231.00164462 190.77146055 -225 191 C-217.97179366 192.13550953 -212.5428249 195.56448026 -208 201 C-200.00553973 214.06708734 -200.5072473 229.19291507 -200 244 C-194.57429401 231.54257906 -199.93979353 215.15791146 -204.3125 202.9375 C-208.27167406 193.47880452 -213.43921966 185.41029545 -223 181 C-226.3125978 180.04693415 -229.57996074 179.41411749 -233 179 C-228.27399252 176.21425706 -224.21137839 176.82095512 -219 178 C-209.99583854 181.4470314 -205.35923744 189.90896091 -201.3125 198.1875 C-197.10448985 207.96004988 -194.86698439 218.55962678 -193 229 C-191.28850061 223.89662001 -192.90798373 219.7243482 -194.3125 214.75 C-199.1616559 196.52438001 -201.98991558 176.1637956 -195.3125 158 C-193.96574069 154.26360621 -193.62666105 151.86251579 -195 148 C-196.47077189 145.45105269 -197.77295065 144.0785794 -200 142 C-203.08617271 141.24939151 -203.08617271 141.24939151 -206 142 C-208.77238379 144.18763783 -209.67263767 146.35295233 -210.6875 149.6875 C-210.93886719 150.49574219 -211.19023437 151.30398437 -211.44921875 152.13671875 C-211.63097656 152.75160156 -211.81273437 153.36648437 -212 154 C-212.33 154 -212.66 154 -213 154 C-213.38160272 149.22996598 -213.4609004 145.90534008 -211.25 141.5625 C-208.23129587 138.12453141 -206.59884749 137.24330288 -202.125 136.5625 C-197.04451002 137.2737686 -194.26435098 140.4406338 -191.125 144.3125 C-190.75375 144.869375 -190.3825 145.42625 -190 146 C-190.82838074 140.96431711 -194.03475989 138.86991682 -198 136 C-202.07592214 133.90978352 -206.56016541 133.05352007 -211 132 C-211 131.67 -211 131.34 -211 131 C-200.49350264 129.99405876 -193.35788263 134.06150445 -185 140 C-184.34 139.67 -183.68 139.34 -183 139 C-182.9175 140.010625 -182.835 141.02125 -182.75 142.0625 C-182.25876029 145.53577229 -180.97058432 147.92427639 -179.1171875 150.9140625 C-174.09434323 160.29238012 -172.91654472 170.44596091 -172.4375 180.875 C-172.39431641 181.75414062 -172.35113281 182.63328125 -172.30664062 183.5390625 C-172.20130661 185.69255797 -172.10022351 187.84626064 -172 190 C-164.72930013 178.66922614 -167.85934414 164.53615906 -170.53369141 151.92480469 C-172.09366803 145.48561322 -175.23830418 140.39176401 -179 135 C-179.69429379 133.6808418 -180.37530495 132.35350594 -181 131 C-173.91232705 134.02428058 -170.14018513 141.0380968 -167.25 147.875 C-164.20981236 156.31327657 -163.15008027 165.14531692 -162 174 C-162.32047781 157.24775068 -168.02483008 143.12800747 -175.07763672 128.16894531 C-179.95502453 117.61063494 -183.62674977 106.6635531 -181 95 C-179.5 91.8125 -179.5 91.8125 -178 90 C-177.67 90 -177.34 90 -177 90 C-177.04640625 90.7528125 -177.0928125 91.505625 -177.140625 92.28125 C-177.67637476 108.04760002 -172.60002474 120.72413442 -166.0612793 134.78027344 C-161.8618837 143.87811258 -158.49088788 153.05611163 -157 163 C-154.02685116 155.82946456 -155.6664521 150.94331761 -157.9375 143.875 C-162.917554 128.06559222 -162.89916813 113.99609951 -159 98 C-157.58611345 92.55122834 -157.58611345 92.55122834 -157 87 C-157.57363281 86.71382813 -158.14726562 86.42765625 -158.73828125 86.1328125 C-160.17951334 85.41095187 -161.61514729 84.67772398 -163.04296875 83.9296875 C-169.16621168 80.91825655 -174.51546213 79.56171578 -181.16796875 81.6953125 C-187.07683638 84.33379373 -190.46872091 87.93744182 -193.375 93.75 C-194.34779815 98.80855038 -194.32540902 104.47052222 -191.890625 109.1171875 C-191 111 -191 111 -192 114 C-199.08530394 101.2412239 -199.08530394 101.2412239 -197.51953125 93.6796875 C-195.14787299 85.7392184 -191.42229868 81.91343558 -184.21875 78.015625 C-177.80039792 75.07764694 -171.97918001 75.48342409 -165.375 77.75 C-161.34043335 79.30389087 -158.14923033 80.95936382 -155 84 C-152.97260352 77.56173153 -152.97260352 77.56173153 -153 71 C-154.86319971 69.03930728 -156.79629898 67.60686533 -159 66 C-158.01 65.67 -157.02 65.34 -156 65 C-154.515 65.99 -154.515 65.99 -153 67 C-153.33 63.37 -153.66 59.74 -154 56 C-151.4254682 57.80217226 -150.14605231 59.2994053 -149.5 62.3984375 C-149.37625 63.31882813 -149.2525 64.23921875 -149.125 65.1875 C-148.34722171 70.43055901 -146.6280615 73.45671835 -143.52734375 77.671875 C-131.24831028 96.38876489 -136.20505967 125.33112857 -140 146 C-128.87006117 129.5700903 -125.73894829 102.25199205 -129 83 C-130.80840432 77.04137281 -133.11077251 71.87859238 -137 67 C-136.67 66.34 -136.34 65.68 -136 65 C-126.91032532 73.7366776 -123.91203899 81.75516537 -123.58325195 94.24072266 C-123.48290715 108.79189988 -125.83440565 122.05559905 -130 136 C-124.68154377 132.45436251 -121.92720751 127.86866493 -120.4519043 121.71313477 C-119.98360551 118.90157107 -119.91834606 116.34018471 -119.97265625 113.4921875 C-119.98578857 112.43193359 -119.9989209 111.37167969 -120.01245117 110.27929688 C-120.02896729 109.15587891 -120.0454834 108.03246094 -120.0625 106.875 C-120.15747432 98.60935592 -119.86143899 90.68000023 -118.6875 82.5 C-117.85221022 76.17972889 -117.84972658 71.48064537 -121.3515625 65.95703125 C-123.97336749 62.84441443 -126.73421569 60.43332948 -130 58 C-129.01 57.67 -128.02 57.34 -127 57 C-125.09765625 58.07421875 -125.09765625 58.07421875 -123.0625 59.6875 C-122.39347656 60.20699219 -121.72445312 60.72648437 -121.03515625 61.26171875 C-118.92438726 63.06458286 -116.96286331 65.03713669 -115 67 C-112.525 61.06 -112.525 61.06 -110 55 C-108.73259305 58.80222084 -109.57194162 59.70334861 -111.125 63.3125 C-113.43320291 69.80530205 -112.51849396 74.16403797 -110.8203125 80.70703125 C-108.03728792 91.87888707 -111.23127421 104.33394367 -114.1015625 115.2734375 C-115.15624993 119.00920834 -115.15624993 119.00920834 -115 123 C-112.4164722 121.42565764 -111.17919816 120.57138207 -110.25805664 117.63427734 C-110.14324951 116.7108252 -110.02844238 115.78737305 -109.91015625 114.8359375 C-109.76835937 113.80404297 -109.6265625 112.77214844 -109.48046875 111.70898438 C-109.34253906 110.60876953 -109.20460937 109.50855469 -109.0625 108.375 C-107.17352821 95.0988797 -104.4425661 82.87077395 -98.65625 70.71484375 C-97.67241693 68.14399425 -98.0402456 66.53649376 -99 64 C-99.350625 62.906875 -99.70125 61.81375 -100.0625 60.6875 C-100.371875 59.800625 -100.68125 58.91375 -101 58 C-99.02 59.32 -97.04 60.64 -95 62 C-94.43152344 61.10539062 -93.86304688 60.21078125 -93.27734375 59.2890625 C-92.49770815 58.06750894 -91.71773563 56.84617039 -90.9375 55.625 C-90.52773926 54.98159668 -90.11797852 54.33819336 -89.69580078 53.67529297 C-87.3741642 50.05411827 -84.96091889 46.56503788 -82.375 43.125 C-78.83707184 38.20158949 -76.57464733 32.85954087 -74.30810547 27.26806641 C-72.19082805 22.09541403 -72.19082805 22.09541403 -70 21 C-72.08030399 29.01091642 -74.53329402 36.84967294 -77.1875 44.6875 C-77.55552734 45.78255859 -77.92355469 46.87761719 -78.30273438 48.00585938 C-79.19904876 50.67152163 -80.09817383 53.3361985 -81 56 C-80.36384766 54.58460937 -80.36384766 54.58460937 -79.71484375 53.140625 C-75.06467682 42.91079349 -70.32819652 32.85663086 -63.0625 24.1875 C-60.66623496 21.20966952 -60.02581528 20.15489169 -59.375 16.25 C-60.0230087 12.88035478 -60.99160576 10.76154209 -63 8 C-60.5625 8.6875 -60.5625 8.6875 -58 10 C-57.1875 12.625 -57.1875 12.625 -57 15 C-54.69 13.35 -52.38 11.7 -50 10 C-50.99850092 12.15061736 -51.95067277 13.94145636 -53.484375 15.76171875 C-55.34894693 18.51532626 -55.76297328 20.80419297 -56.4375 24.0625 C-58.59827761 33.31545913 -62.71114093 41.77164823 -66.67163086 50.36743164 C-69.49388488 56.50815529 -72.01704449 62.53652564 -74 69 C-73.34 69 -72.68 69 -72 69 C-71.6596875 67.1746875 -71.6596875 67.1746875 -71.3125 65.3125 C-67.16181786 47.12855919 -56.89190793 30.89086929 -46 16 C-45.67 16.66 -45.34 17.32 -45 18 C-45.97216797 20.01538086 -45.97216797 20.01538086 -47.4921875 22.46484375 C-48.03230469 23.34720703 -48.57242188 24.22957031 -49.12890625 25.13867188 C-49.70511719 26.06228516 -50.28132812 26.98589844 -50.875 27.9375 C-51.99993488 29.7575477 -53.12244139 31.57909919 -54.2421875 33.40234375 C-54.7460498 34.21179443 -55.24991211 35.02124512 -55.76904297 35.85522461 C-57.13201651 38.06610794 -57.13201651 38.06610794 -58 41 C-57.38253906 39.98421875 -56.76507813 38.9684375 -56.12890625 37.921875 C-50.81806547 29.26248265 -45.27011823 20.99667253 -39 13 C-38.01 13.495 -38.01 13.495 -37 14 C-37.60585937 14.79019531 -38.21171875 15.58039062 -38.8359375 16.39453125 C-44.00802488 23.29897639 -48.49094703 30.35546828 -52.5 38 C-53.13107666 39.20039917 -53.13107666 39.20039917 -53.77490234 40.42504883 C-55.88786121 44.5399174 -57.6865291 48.54562043 -59 53 C-58.45472656 52.24976563 -57.90945312 51.49953125 -57.34765625 50.7265625 C-52.24076146 43.79515316 -46.93249222 37.25608271 -41 31 C-40.16855469 30.11570312 -39.33710938 29.23140625 -38.48046875 28.3203125 C-33.46522247 23.13617799 -28.27117337 18.41749487 -22.625 13.9375 C-22.04210205 13.472229 -21.4592041 13.00695801 -20.85864258 12.52758789 C-17.71086166 10.0890894 -14.78687587 8.25520043 -11 7 C-15.1608927 11.22552793 -19.47284833 15.27166232 -23.8125 19.3125 C-30.38718788 25.45439547 -30.38718788 25.45439547 -36.875 31.6875 C-37.44992188 32.24824219 -38.02484375 32.80898438 -38.6171875 33.38671875 C-40.12476812 35.1455628 -41.05433929 36.89292103 -42 39 C-41.36835938 38.31035156 -40.73671875 37.62070312 -40.0859375 36.91015625 C-29.48722991 25.7769317 -17.05058844 18.17193927 -3 12 C-2.34 12 -1.68 12 -1 12 C-0.83211627 10.37512529 -0.66573213 8.75009558 -0.5 7.125 C-0.4071875 6.22007812 -0.314375 5.31515625 -0.21875 4.3828125 C0.03047295 2.06686789 0.03047295 2.06686789 0 0 Z M-35.58911133 38.14379883 C-42.79195686 45.6271381 -48.09401 54.3992956 -52 64 C-51.34 64 -50.68 64 -50 64 C-49.06835078 62.45862154 -48.14791568 60.90929332 -47.28686523 59.32739258 C-40.04710972 46.05852688 -29.84434822 36.82617275 -17.55639648 28.2199707 C-12.98543458 24.97484829 -9.46037835 21.40881422 -6 17 C-16.21301745 17 -28.68612196 31.27613581 -35.58911133 38.14379883 Z M-61 24 C-66.25518385 31.97214965 -70.65804893 39.88301423 -73.9375 48.875 C-74.21924072 49.64626221 -74.50098145 50.41752441 -74.79125977 51.2121582 C-77.27874804 58.31416156 -79.38910873 65.4123798 -79 73 C-75.43206171 70.30875512 -74.90637304 66.61477297 -73.875 62.5 C-71.54788878 53.86704682 -67.96422371 46.12722416 -63.98828125 38.14453125 C-60.83254629 32.16209061 -60.83254629 32.16209061 -60.375 25.625 C-60.58125 25.08875 -60.7875 24.5525 -61 24 Z M-8 29 C-8.33 29.66 -8.66 30.32 -9 31 C-8.01 30.67 -7.02 30.34 -6 30 C-6.66 29.67 -7.32 29.34 -8 29 Z M-17 31 C-17.33 31.66 -17.66 32.32 -18 33 C-17.01 32.67 -16.02 32.34 -15 32 C-15.66 31.67 -16.32 31.34 -17 31 Z M-20 33 C-20.99 34.485 -20.99 34.485 -22 36 C-20.68 35.34 -19.36 34.68 -18 34 C-18.66 33.67 -19.32 33.34 -20 33 Z M-24 36 C-25.63676257 37.9600281 -25.63676257 37.9600281 -27 40 C-23.87802522 38.6910428 -23.87802522 38.6910428 -22 36 C-22.66 36 -23.32 36 -24 36 Z M-29 40 C-31.97 42.97 -34.94 45.94 -38 49 C-37.67 49.66 -37.34 50.32 -37 51 C-33.7 47.7 -30.4 44.4 -27 41 C-27.66 40.67 -28.32 40.34 -29 40 Z M-2.2578125 42.40625 C-2.88300781 42.90253906 -3.50820312 43.39882813 -4.15234375 43.91015625 C-4.80332031 44.43480469 -5.45429688 44.95945312 -6.125 45.5 C-7.11306641 46.28697266 -7.11306641 46.28697266 -8.12109375 47.08984375 C-9.75084155 48.38891808 -11.37586895 49.69391028 -13 51 C-9.02489121 51 -7.60915937 49.53140273 -4.4375 47.1875 C-3.46683594 46.47980469 -2.49617187 45.77210937 -1.49609375 45.04296875 C1.16682293 43.0666962 1.16682293 43.0666962 3 40 C0.41541204 40 -0.25758077 40.80606462 -2.2578125 42.40625 Z M-45 41 C-45.66 42.32 -46.32 43.64 -47 45 C-46.01 44.34 -45.02 43.68 -44 43 C-44.33 42.34 -44.66 41.68 -45 41 Z M-61 45 C-60 47 -60 47 -60 47 Z M-48 45 C-52.71642877 51.38824646 -56.669958 57.78746663 -60 65 C-55.82991671 63.60997224 -55.45899102 61.54963361 -53.5 57.6875 C-51.55558085 53.87967916 -49.69571283 50.32854785 -47 47 C-47.33 46.34 -47.66 45.68 -48 45 Z M-62 47 C-61 49 -61 49 -61 49 Z M-63 49 C-62 52 -62 52 -62 52 Z M-39 51 C-39.66 52.32 -40.32 53.64 -41 55 C-40.01 54.34 -39.02 53.68 -38 53 C-38.33 52.34 -38.66 51.68 -39 51 Z M-64 52 C-63 54 -63 54 -63 54 Z M-85 53 C-86.37174861 55.55439402 -87.72225408 58.11664431 -89.0625 60.6875 C-89.45244141 61.40873047 -89.84238281 62.12996094 -90.24414062 62.87304688 C-92.51956401 67.20921903 -92.51956401 67.20921903 -92.74609375 72.01953125 C-92.49988281 72.67308594 -92.25367188 73.32664062 -92 74 C-88.71713061 70.30936367 -87.09369388 67.0985084 -85.6875 62.375 C-85.34074219 61.24835937 -84.99398437 60.12171875 -84.63671875 58.9609375 C-83.72957463 55.96360005 -83.72957463 55.96360005 -85 53 Z M-65 54 C-64 57 -64 57 -64 57 Z M10.83203125 56.08984375 C10.16558594 57.02957031 9.49914062 57.96929687 8.8125 58.9375 C4.71896866 64.3351035 0.54211461 68.11001475 -4.8125 72.22265625 C-7.07915984 73.81484646 -7.07915984 73.81484646 -8 76 C-3.67190232 74.53325579 -0.3129919 72.22765455 3.25 69.4375 C3.81485107 68.99929932 4.37970215 68.56109863 4.96166992 68.10961914 C10.00728078 64.12563972 14.74295702 59.82904875 19 55 C19 54.67 19 54.34 19 54 C14.431603 53.47953019 14.431603 53.47953019 10.83203125 56.08984375 Z M21 54 C20.57589844 54.49628906 20.15179688 54.99257813 19.71484375 55.50390625 C11.88454179 64.57328896 3.57348027 71.84508316 -6 79 C3.86720842 79 15.44483019 64.59084181 22.125 57.9375 C23.0860248 56.9609748 24.04552077 55.98292397 25 55 C23.68 54.67 22.36 54.34 21 54 Z M-61 55 C-60 57 -60 57 -60 57 Z M6 55 C3.36 57.97 0.72 60.94 -2 64 C1.06860631 64.32527608 1.06860631 64.32527608 3.04296875 62.25 C4.10451172 61.13625 4.10451172 61.13625 5.1875 60 C5.90292969 59.2575 6.61835938 58.515 7.35546875 57.75 C7.89816406 57.1725 8.44085938 56.595 9 56 C8.01 55.67 7.02 55.34 6 55 Z M-43 56 C-42 58 -42 58 -42 58 Z M-66 57 C-65 59 -65 59 -65 59 Z M-44 58 C-44 61 -44 61 -44 61 Z M-2 58 C-4.97 60.97 -7.94 63.94 -11 67 C-7.93139369 67.32527608 -7.93139369 67.32527608 -5.95703125 65.25 C-4.89548828 64.13625 -4.89548828 64.13625 -3.8125 63 C-3.09707031 62.2575 -2.38164062 61.515 -1.64453125 60.75 C-1.10183594 60.1725 -0.55914062 59.595 0 59 C-0.66 58.67 -1.32 58.34 -2 58 Z M-67 60 C-66 63 -66 63 -66 63 Z M-46 61 C-45 63 -45 63 -45 63 Z M-68 64 C-67 66 -67 66 -67 66 Z M-15 64 C-15.33 64.66 -15.66 65.32 -16 66 C-15.01 65.67 -14.02 65.34 -13 65 C-13.66 64.67 -14.32 64.34 -15 64 Z M-83 66 C-82 68 -82 68 -82 68 Z M-18 66 C-20.64 67.98 -23.28 69.96 -26 72 C-25.67 72.66 -25.34 73.32 -25 74 C-22.03 71.69 -19.06 69.38 -16 67 C-16.66 66.67 -17.32 66.34 -18 66 Z M-84 68 C-84.91692961 70.75078884 -85.10886083 72.35948913 -85.0625 75.1875 C-85.041875 76.445625 -85.02125 77.70375 -85 79 C-82.94074319 75.91111478 -82.7609626 75.29064073 -82.875 71.8125 C-82.91625 70.554375 -82.9575 69.29625 -83 68 C-83.33 68 -83.66 68 -84 68 Z M17 70 C12.13319152 73.46635951 7.28297062 76.93124237 2.64453125 80.69921875 C-8.3924773 89.66236947 -19.85922201 96.42187383 -33 102 C-32.67 102.66 -32.34 103.32 -32 104 C-11.81356816 97.61770299 3.28986182 87.3639221 18 72 C17.505 71.01 17.505 71.01 17 70 Z M-96 76 C-101.99707449 92.12458008 -101.99707449 92.12458008 -104 109 C-103.67 109 -103.34 109 -103 109 C-102.75765625 108.04480469 -102.5153125 107.08960937 -102.265625 106.10546875 C-100.67752487 99.95118133 -99.06600715 93.93063259 -96.75 88 C-95.12035595 83.74128176 -94.59712167 80.53238121 -95 76 C-95.33 76 -95.66 76 -96 76 Z M-149 77 C-150.74589362 83.97177792 -151.89835435 89.18343257 -148.140625 95.57421875 C-145.01833463 102.21443218 -144.61389673 109.45233032 -144.625 116.6875 C-144.62371094 117.58162598 -144.62242187 118.47575195 -144.62109375 119.39697266 C-144.75599991 128.21952893 -146.31883508 136.63033526 -148.125 145.2421875 C-148.94293118 149.25995492 -149.17838304 152.90833891 -149 157 C-145.21334872 150.61002597 -144.44993419 142.21388933 -143 135 C-142.76796875 133.84886719 -142.5359375 132.69773438 -142.296875 131.51171875 C-139.33375759 114.17748189 -138.46483777 92.89883161 -147 77 C-147.66 77 -148.32 77 -149 77 Z M-90 79 C-91.51540237 81.76514257 -92.33626206 84.11380402 -92.78125 87.23046875 C-92.96107422 88.43606445 -92.96107422 88.43606445 -93.14453125 89.66601562 C-93.26183594 90.49810547 -93.37914062 91.33019531 -93.5 92.1875 C-94.41632843 98.536347 -95.54287485 104.7506917 -97 111 C-96.34 111 -95.68 111 -95 111 C-90.39674329 95.21064258 -90.39674329 95.21064258 -89 79 C-89.33 79 -89.66 79 -90 79 Z M-8 80 C-10.48618701 81.22286718 -10.48618701 81.22286718 -13.125 82.9375 C-14.03507813 83.50339844 -14.94515625 84.06929688 -15.8828125 84.65234375 C-16.58148438 85.09707031 -17.28015625 85.54179688 -18 86 C-17.01 86.495 -17.01 86.495 -16 87 C-13.51381299 85.77713282 -13.51381299 85.77713282 -10.875 84.0625 C-9.96492187 83.49660156 -9.05484375 82.93070312 -8.1171875 82.34765625 C-7.06917969 81.68056641 -7.06917969 81.68056641 -6 81 C-6.66 80.67 -7.32 80.34 -8 80 Z M-116 83 C-116 88.94 -116 94.88 -116 101 C-115.67 101 -115.34 101 -115 101 C-114.00749455 95.29309366 -113.89522488 89.78591511 -114 84 C-114.66 83.67 -115.32 83.34 -116 83 Z M-21 87 C-21.66 87.66 -22.32 88.32 -23 89 C-21.35 88.67 -19.7 88.34 -18 88 C-18.99 87.67 -19.98 87.34 -21 87 Z M-19 91 C-21.70379866 91.99590109 -21.70379866 91.99590109 -24.625 93.4375 C-25.62789062 93.91058594 -26.63078125 94.38367188 -27.6640625 94.87109375 C-28.82035156 95.42990234 -28.82035156 95.42990234 -30 96 C-27.06644576 97.33728333 -27.06644576 97.33728333 -24.51953125 96.00390625 C-23.62621094 95.52824219 -22.73289063 95.05257812 -21.8125 94.5625 C-20.91144531 94.08941406 -20.01039063 93.61632812 -19.08203125 93.12890625 C-18.39496094 92.75636719 -17.70789063 92.38382812 -17 92 C-17.66 91.67 -18.32 91.34 -19 91 Z M-14 106 C-13.01 106.495 -13.01 106.495 -12 107 C-9.32362768 105.8144928 -6.73427074 104.56926574 -4.125 103.25 C6.40426413 98.12260031 16.28753913 95.66862473 28 95 C25.02987012 92.02987012 22.15328154 92.26581982 18.0703125 91.97265625 C6.00542212 92.08010438 -4.89810753 98.60153434 -14 106 Z M-153 94 C-153.65256456 95.70577342 -154.29673041 97.41476089 -154.9375 99.125 C-155.47697266 100.55199219 -155.47697266 100.55199219 -156.02734375 102.0078125 C-160.60062536 116.0766226 -157.86081176 132.32632519 -153 146 C-152.34 146 -151.68 146 -151 146 C-146.1169197 120.75634538 -146.1169197 120.75634538 -151 96 C-151.66 95.34 -152.32 94.68 -153 94 Z M-35 108 C-36.77190909 109.35444301 -36.77190909 109.35444301 -38 111 C-35.69 110.34 -33.38 109.68 -31 109 C-32.83700789 108.22757731 -32.83700789 108.22757731 -35 108 Z M-105 109 C-105 110.65 -105 112.3 -105 114 C-104.67 114 -104.34 114 -104 114 C-104 112.35 -104 110.7 -104 109 C-104.33 109 -104.66 109 -105 109 Z M-89 119 C-88.67 119.66 -88.34 120.32 -88 121 C-87.34 120.67 -86.68 120.34 -86 120 C-86.99 119.67 -87.98 119.34 -89 119 Z M-99 124 C-99.99 124.495 -99.99 124.495 -101 125 C-99.47212852 129.58361445 -96.07549749 130.58581726 -91.9453125 132.76953125 C-87.9629028 134.43327005 -85.24915285 134.48103617 -81 134 C-81.556875 133.731875 -82.11375 133.46375 -82.6875 133.1875 C-86.08435547 131.44316881 -89.30358158 129.42464538 -92.5625 127.4375 C-95.70378561 125.563788 -95.70378561 125.563788 -99 124 Z M-74 127 C-74 127.33 -74 127.66 -74 128 C-72.35 128 -70.7 128 -69 128 C-69 127.67 -69 127.34 -69 127 C-70.65 127 -72.3 127 -74 127 Z M-111 132 C-111 132.33 -111 132.66 -111 133 C-106.38 133 -101.76 133 -97 133 C-100.41854332 129.19324119 -100.41854332 129.19324119 -102.875 128 C-106.32945499 128 -108.34932766 129.95175319 -111 132 Z M-119.37109375 139.52734375 C-119.90863281 140.34332031 -120.44617188 141.15929687 -121 142 C-119.72769531 141.84402344 -118.45539063 141.68804687 -117.14453125 141.52734375 C-104.26233854 140.06348627 -91.9201333 140.03131726 -79 141 C-86.23714037 136.17523976 -93.65508858 136.60112517 -102.0625 136.5625 C-103.32900391 136.52962891 -104.59550781 136.49675781 -105.90039062 136.46289062 C-113.25946516 136.10524378 -113.25946516 136.10524378 -119.37109375 139.52734375 Z M-72 143 C-67.16114399 147.83885601 -60.90448893 150.84941832 -54.08203125 151.203125 C-48.31970647 150.81631544 -42.68739263 149.98268405 -37 149 C-37 148.34 -37 147.68 -37 147 C-44.59186872 143.97137216 -51.43388596 143.4699441 -59.5625 143.3125 C-60.76197266 143.27833984 -61.96144531 143.24417969 -63.19726562 143.20898438 C-66.13141684 143.12715546 -69.06529364 143.0577937 -72 143 Z M-99 144 C-99 144.33 -99 144.66 -99 145 C-94.96027133 145.84291786 -90.91793891 146.67262865 -86.875 147.5 C-85.73289063 147.73847656 -84.59078125 147.97695312 -83.4140625 148.22265625 C-82.30546875 148.44824219 -81.196875 148.67382812 -80.0546875 148.90625 C-78.53077393 149.22045898 -78.53077393 149.22045898 -76.97607422 149.54101562 C-73.93587401 150.00988982 -71.07101806 150.0800787 -68 150 C-71.3627368 147.75817547 -74.57570756 146.84675823 -78.4375 145.875 C-79.14455078 145.69614258 -79.85160156 145.51728516 -80.58007812 145.33300781 C-86.75875227 143.87051731 -92.65798502 143.56758989 -99 144 Z M-187 146 C-187.96444902 150.12082761 -188.26699714 152.83529507 -186.75 156.8125 C-181.05779193 172.42690562 -181.34469602 189.61075158 -181 206 C-174.17680014 197.1001741 -176.20993601 183.32694528 -177.234375 172.52978516 C-178.41448517 164.04192039 -180.24278219 151.91256559 -187 146 Z M-138.5625 158.75 C-139.036875 159.4925 -139.51125 160.235 -140 161 C-138.824375 160.5875 -137.64875 160.175 -136.4375 159.75 C-129.72008392 157.50730147 -122.86625874 155.72433195 -116 154 C-114.84177734 153.70416016 -114.84177734 153.70416016 -113.66015625 153.40234375 C-92.41569021 150.18915726 -73.64809669 155.23460221 -56 167 C-52.36060068 166.68269476 -52.36060068 166.68269476 -49 166 C-49 162.49831966 -49.49053097 161.64352116 -51.625 158.9375 C-57.58099828 153.16039213 -65.28661199 153.85468865 -73.10546875 153.4296875 C-78.74043133 153.10219173 -84.06445258 152.10847867 -89.5625 150.875 C-104.4831671 147.67264947 -127.13576283 146.48716011 -138.5625 158.75 Z M-191 156 C-193.52419076 164.4925507 -194.48353512 172.28130303 -194.375 181.125 C-194.36774902 182.29772461 -194.36049805 183.47044922 -194.35302734 184.67871094 C-194.16107881 196.85993179 -192.47699681 208.32938463 -189 220 C-186.12508658 217.25008282 -185.04870647 215.95346607 -184.83886719 211.84570312 C-184.81890253 210.49096021 -184.80537581 209.13611335 -184.796875 207.78125 C-184.78999664 207.05512009 -184.78311829 206.32899017 -184.77603149 205.58085632 C-184.75877075 203.22052063 -184.75256425 200.86039564 -184.75 198.5 C-184.74832825 197.70332916 -184.74665649 196.90665833 -184.74493408 196.08584595 C-184.74318656 182.2697806 -185.35805509 169.17908707 -190 156 C-190.33 156 -190.66 156 -191 156 Z M-126.5625 159.9375 C-127.33625977 160.19031738 -128.11001953 160.44313477 -128.90722656 160.70361328 C-132.74129485 162.01730833 -135.91957457 163.26275194 -139 166 C-137.94683594 165.90460938 -136.89367187 165.80921875 -135.80859375 165.7109375 C-123.08836184 164.67916553 -111.59309973 165.7960024 -99.23071289 168.93286133 C-86.09477335 172.26235517 -74.34891167 173.51783084 -61 170 C-61 169.01 -61 168.02 -61 167 C-82.86127643 155.64955064 -102.56807769 152.02815571 -126.5625 159.9375 Z M-117 180 C-114.27886431 181.81409046 -111.52261875 183.25572316 -108.60400391 184.71679688 C-100.09170766 189.02186624 -92.42647483 194.01595253 -84.80249023 199.74536133 C-84.08649658 200.28314209 -83.37050293 200.82092285 -82.6328125 201.375 C-82.00262207 201.85710937 -81.37243164 202.33921875 -80.72314453 202.8359375 C-78.89206475 204.18543311 -78.89206475 204.18543311 -76 205 C-77.69522248 197.46567785 -82.93287984 192.27395509 -89 187.8125 C-97.08552273 182.75038028 -107.40731276 179.02115436 -117 180 Z M-158 184 C-158.66 184.99 -159.32 185.98 -160 187 C-155.76570244 185.68938409 -151.92592596 184.05643741 -148 182 C-152.06419546 180.28053269 -154.40002313 181.80870973 -158 184 Z M-187.625 235.5 C-188.07875 235.995 -188.5325 236.49 -189 237 C-188.67 237.66 -188.34 238.32 -188 239 C-186.68 237.35 -185.36 235.7 -184 234 C-186.12364481 233.77390663 -186.12364481 233.77390663 -187.625 235.5 Z M-233 239 C-231.58409603 241.9593064 -229.95305842 244.67502996 -228.1875 247.4375 C-221.17127502 259.18242162 -218.50879604 271.72720752 -216 285 C-215.67 285 -215.34 285 -215 285 C-213.56580753 272.45081591 -212.29495551 258.24071662 -216 246 C-219.02865063 242.49007102 -221.47934044 240.18398227 -226 239 C-228.3320802 238.92353835 -230.66845878 238.90856701 -233 239 Z M-198 264 C-200.54672119 266.52584642 -202.84981641 269.13048227 -205 272 C-204.67 272.66 -204.34 273.32 -204 274 C-203.56171875 273.57589844 -203.1234375 273.15179688 -202.671875 272.71484375 C-191.25649338 262.15793595 -179.75974657 256.68343551 -164.3125 257.0625 C-163.50417725 257.10705322 -162.69585449 257.15160645 -161.86303711 257.19750977 C-156.00137619 257.41384947 -152.85303962 256.31981693 -148 253 C-148.495 252.01 -148.495 252.01 -149 251 C-167.75303816 246.18466923 -183.41100207 252.38564191 -198 264 Z M-213 253 C-212 256 -212 256 -212 256 Z M-212 257 C-212 262.61 -212 268.22 -212 274 C-208.87499575 269.31249363 -209.61305421 264.37004297 -210.5 258.9375 C-210.665 258.298125 -210.83 257.65875 -211 257 C-211.33 257 -211.66 257 -212 257 Z M-208 281 C-207.67 281.66 -207.34 282.32 -207 283 C-206.50113281 282.5153125 -206.00226563 282.030625 -205.48828125 281.53125 C-193.0444212 269.91400184 -179.4000369 263.719596 -163 260 C-163 259.67 -163 259.34 -163 259 C-180.88816331 257.14523652 -196.48447884 268.38776254 -208 281 Z M-166.8125 262.4375 C-167.78227783 262.72391357 -168.75205566 263.01032715 -169.7512207 263.30541992 C-182.11579403 267.08287946 -191.30407299 272.46179562 -201 281 C-201.86367187 281.71929687 -202.72734375 282.43859375 -203.6171875 283.1796875 C-204.42414063 283.86289062 -205.23109375 284.54609375 -206.0625 285.25 C-206.77535156 285.85328125 -207.48820312 286.4565625 -208.22265625 287.078125 C-210.231549 289.25037826 -211.07194797 291.21103535 -212 294 C-211.0925 293.195625 -210.185 292.39125 -209.25 291.5625 C-188.5604498 273.98260163 -169.56388182 267.67492373 -143 266 C-150.94472725 259.69556054 -157.34291685 259.49065728 -166.8125 262.4375 Z M-213 274 C-212 277 -212 277 -212 277 Z M-225 330 C-224 332 -224 332 -224 332 Z " fill="#017352" transform="translate(252,0)"/>
<path d="M0 0 C2.87085612 2.50279764 4.7814738 4.28613021 5.2734375 8.14453125 C5.75763995 20.86415722 0.31371226 31.60457797 -8 41 C-10.49772154 43.36938012 -13.04095557 45.24711844 -16 47 C-16.68707031 47.41121094 -17.37414062 47.82242188 -18.08203125 48.24609375 C-24.17240047 51.4174752 -30.23403817 52.17276672 -37 51 C-44.45803736 47.87537884 -49.7486866 41.81315278 -53.1328125 34.578125 C-55.28130072 28.19072759 -54.75804703 21.82716548 -51.9375 15.75 C-49.37515424 11.16706158 -46.19726267 7.19287992 -42 4 C-41.34 4 -40.68 4 -40 4 C-40 3.34 -40 2.68 -40 2 C-38.12855305 1.17934931 -36.25265664 0.3688416 -34.375 -0.4375 C-33.33085937 -0.88996094 -32.28671875 -1.34242187 -31.2109375 -1.80859375 C-21.5350445 -5.39879736 -8.63085838 -6.39161804 0 0 Z " fill="#8F4B10" transform="translate(218,71)"/>
<path d="M0 0 C3.43068055 2.36933711 5.9296972 5.24611613 7.60546875 9.11328125 C8.24485492 16.35965788 7.98753787 21.13590187 3.79296875 27.23828125 C-0.52108502 31.85331551 -4.92999196 33.98588282 -11.20703125 34.23828125 C-17.79283934 32.34067553 -22.9985679 28.59049307 -26.51953125 22.67578125 C-29.03749651 17.54659277 -29.99654468 12.99839333 -29.20703125 7.23828125 C-26.78875614 2.40173102 -23.89149529 -0.12670773 -19.20703125 -2.76171875 C-12.62715262 -4.8747692 -5.92622746 -3.25291926 0 0 Z " fill="#00425F" transform="translate(198.20703125,83.76171875)"/>
<path d="M0 0 C3.43068055 2.36933711 5.9296972 5.24611613 7.60546875 9.11328125 C8.24485492 16.35965788 7.98753787 21.13590187 3.79296875 27.23828125 C-0.52108502 31.85331551 -4.92999196 33.98588282 -11.20703125 34.23828125 C-17.79283934 32.34067553 -22.9985679 28.59049307 -26.51953125 22.67578125 C-29.03749651 17.54659277 -29.99654468 12.99839333 -29.20703125 7.23828125 C-26.78875614 2.40173102 -23.89149529 -0.12670773 -19.20703125 -2.76171875 C-12.62715262 -4.8747692 -5.92622746 -3.25291926 0 0 Z M-20.20703125 3.23828125 C-21.80195928 6.42813732 -21.58319806 9.76761012 -21.20703125 13.23828125 C-20.30945569 15.38608202 -20.30945569 15.38608202 -18.20703125 16.23828125 C-14.58167149 16.48863895 -14.58167149 16.48863895 -11.20703125 16.23828125 C-11.53703125 16.89828125 -11.86703125 17.55828125 -12.20703125 18.23828125 C-12.56979077 22.34910734 -12.56979077 22.34910734 -11.14453125 26.11328125 C-7.99587322 27.9415343 -5.77563949 27.72216033 -2.20703125 27.23828125 C1.43043382 25.1550058 4.59029185 22.32738272 5.79296875 18.23828125 C6.30756353 12.78357659 5.52458645 8.99658305 2.79296875 4.23828125 C0.04229492 1.20489928 -2.62384956 -0.47614484 -6.67578125 -1.20703125 C-12.45149978 -1.46798239 -15.85161584 -0.55874757 -20.20703125 3.23828125 Z " fill="#04C562" transform="translate(198.20703125,83.76171875)"/>
<path d="M0 0 C2.37948772 0.17625835 3.70225849 0.69719773 5.37890625 2.40234375 C6.62115486 3.90649092 7.81376056 5.45129851 9 7 C8.34 8.32 7.68 9.64 7 11 C6.38125 9.39125 6.38125 9.39125 5.75 7.75 C4.36260851 4.47734926 2.72000092 2.34482838 0 0 Z " fill="#0FB15B" transform="translate(196,84)"/>
<path d="M0 0 C0 3 0 3 0 3 Z " fill="#007351" transform="translate(208,13)"/>
<path d="" fill="#007052" transform="translate(0,0)"/>
<path d="" fill="#007451" transform="translate(0,0)"/>
<path d="" fill="#007451" transform="translate(0,0)"/>
<path d="" fill="#007052" transform="translate(0,0)"/>
</svg>
